<svg id="Layer_1" data-name="Layer 1" xmlns="http://www.w3.org/2000/svg" viewBox="0 0 1920 1080"><defs><style>.cls-1{fill:#459aab;}.cls-2{fill:#cd2028;}.cls-3{fill:#faa61b;}.cls-4{fill:#161425;}</style></defs><path class="cls-1" d="M1838.43,0V949.81l-876.19,118.3c-7.38,1-6.65,11.89.8,11.89h957V0Z"/><polygon class="cls-2" points="1614.71 0 1645.71 799.38 1306.48 996.17 1748.43 887.35 1740.23 0 1614.71 0"/><polygon class="cls-3" points="1740.23 7.57 1748.43 887.35 1077.67 1052.52 1838.43 1052.52 1838.43 7.57 1740.23 7.57"/><path class="cls-4" d="M1845.93,1060H1015.85l725-178.54L1732.66.07h113.27Zm-706.43-15h691.43V15.07H1747.8L1756,893.21Z"/><polygon class="cls-2" points="0 899 523.14 980 400.91 1039.07 0 947.86 0 899"/><polygon class="cls-1" points="0 998.14 295.96 1051.09 205.57 1080 0 1010.43 0 998.14"/><polygon class="cls-3" points="7.43 995.86 436.35 1072.59 541.29 1072.43 7.43 945.57 7.43 995.86"/><path class="cls-4" d="M435.69,1080.09,435,1080-.07,1002.13v-66l605,143.75ZM14.93,989.58,437,1065.09l40.68-.06-462.76-110Z"/><polygon class="cls-3" points="182.43 7.77 210.71 714.05 637.57 667.5 860.43 833.2 1046.43 1.68 182.43 7.77"/><path class="cls-4" d="M865.23,846.11,635.46,675.28l-431.92,47.1L174.62.32l881.19-6.2ZM639.68,659.73l216,160.55,181.42-811-846.82,6,27.66,690.52Z"/></svg>